# xmcd CD database file
#
# Track frame offsets:
#	150
#	13765
#	29900
#	48452
#	62065
#	75142
#	87740
#	102262
#	114827
#	129140
#	142667
#	157057
#	171635
#	190602
#	202282
#	215727
#	228555
#	242840
#	264660
#	278570
#
# Disc length: 3886 seconds
#
# Revision: 0
# Processed by: cddbd v1.5.2PL0 Copyright (c) Steve Scherf et al.
# Submitted via: CDex 1.51
#
DISCID=210f2c14
DTITLE=Sidney Bechet - The Classic Jazz Collection - Really The Blues
DYEAR=1996
DGENRE=Jazz
TTITLE0=Twelfth Street Rag
TTITLE1=Really The Blues
TTITLE2=That's A Plenty
TTITLE3=When It's Sleepy Time Down South
TTITLE4=Shake It And Break It
TTITLE5=Blues
TTITLE6=I Ain't Gonna Give Nobody None O' This Jelly-Roll
TTITLE7=Blues In The Air
TTITLE8=Shag
TTITLE9=Kansans City Man Blues
TTITLE10=Mandy Make Up Your Mind
TTITLE11=I Found A New Baby
TTITLE12=Summertime
TTITLE13=Limehouse Blues
TTITLE14=Sidney's Blues
TTITLE15=Ain't Misbehavin'
TTITLE16=The Mooche
TTITLE17=Bugle Call Rag - Ole Miss Rag
TTITLE18=Egyptian Fantasy
TTITLE19=Sweetie Dear
EXTD=YEAR: 1996
EXTT0=
EXTT1=
EXTT2=
EXTT3=
EXTT4=
EXTT5=
EXTT6=
EXTT7=
EXTT8=
EXTT9=
EXTT10=
EXTT11=
EXTT12=
EXTT13=
EXTT14=
EXTT15=
EXTT16=
EXTT17=
EXTT18=
EXTT19=
PLAYORDER=
